<svg width="20" height="20" viewBox="0 0 20 20" fill="none" xmlns="http://www.w3.org/2000/svg">
<g clip-path="url(#clip0_96_389)">
<path d="M16.1766 14.4428C16.0506 14.5693 15.954 14.7221 15.8938 14.8902C15.8335 15.0583 15.8111 15.2377 15.8281 15.4154C15.9135 16.2382 16.0752 17.0512 16.3114 17.844C14.6175 17.4518 13.5829 16.9976 13.113 16.7596C12.8464 16.6246 12.5395 16.5927 12.2508 16.6698C11.4234 16.8904 10.5705 17.0014 9.71418 17.0001C4.8619 17.0001 1.21418 13.5916 1.21418 9.71436C1.21418 5.83836 4.8619 2.42864 9.71418 2.42864C14.5665 2.42864 18.2142 5.83836 18.2142 9.71436C18.2142 11.4969 17.465 13.1508 16.1766 14.4428ZM16.7753 19.1846C17.063 19.2416 17.3516 19.2938 17.641 19.3412C17.8839 19.3801 18.0685 19.1275 17.9725 18.9016C17.8647 18.6474 17.7659 18.3894 17.6763 18.1281L17.6726 18.116C17.3715 17.2417 17.1262 16.2363 17.0363 15.3001C18.5263 13.8065 19.4285 11.8515 19.4285 9.71436C19.4285 5.01993 15.0789 1.21436 9.71418 1.21436C4.34947 1.21436 -0.000104904 5.01993 -0.000104904 9.71436C-0.000104904 14.4088 4.34947 18.2144 9.71418 18.2144C10.6763 18.2157 11.6345 18.0907 12.5641 17.8428C13.1955 18.1621 14.5543 18.7438 16.7753 19.1846Z" fill="white"/>
</g>
<defs>
<clipPath id="clip0_96_389">
<rect width="19.4286" height="19.4286" fill="white" transform="matrix(-1 0 0 1 19.4285 0)"/>
</clipPath>
</defs>
</svg>
