<svg width="20" height="20" viewBox="0 0 20 20" fill="none" xmlns="http://www.w3.org/2000/svg">
<path d="M14.4498 4.55002C14.2521 4.55002 14.0587 4.60867 13.8943 4.71855C13.7298 4.82843 13.6016 4.98461 13.526 5.16734C13.4503 5.35006 13.4305 5.55113 13.4691 5.74511C13.5076 5.93909 13.6029 6.11727 13.7427 6.25713C13.8826 6.39698 14.0608 6.49222 14.2547 6.53081C14.4487 6.56939 14.6498 6.54959 14.8325 6.4739C15.0152 6.39821 15.1714 6.27004 15.2813 6.10559C15.3912 5.94114 15.4498 5.7478 15.4498 5.55002C15.4498 5.2848 15.3445 5.03045 15.1569 4.84291C14.9694 4.65538 14.7151 4.55002 14.4498 4.55002ZM18.2832 6.56669C18.267 5.87527 18.1375 5.19119 17.8998 4.54169C17.6879 3.98596 17.3582 3.48275 16.9332 3.06669C16.5205 2.63954 16.0161 2.31183 15.4582 2.10835C14.8104 1.86349 14.1255 1.73103 13.4332 1.71669C12.5498 1.66669 12.2665 1.66669 9.99984 1.66669C7.73317 1.66669 7.44984 1.66669 6.5665 1.71669C5.87413 1.73103 5.18929 1.86349 4.5415 2.10835C3.98457 2.31389 3.48062 2.64132 3.0665 3.06669C2.63936 3.47934 2.31165 3.98372 2.10817 4.54169C1.8633 5.18947 1.73085 5.87431 1.7165 6.56669C1.6665 7.45002 1.6665 7.73335 1.6665 10C1.6665 12.2667 1.6665 12.55 1.7165 13.4334C1.73085 14.1257 1.8633 14.8106 2.10817 15.4584C2.31165 16.0163 2.63936 16.5207 3.0665 16.9334C3.48062 17.3587 3.98457 17.6861 4.5415 17.8917C5.18929 18.1366 5.87413 18.269 6.5665 18.2834C7.44984 18.3334 7.73317 18.3334 9.99984 18.3334C12.2665 18.3334 12.5498 18.3334 13.4332 18.2834C14.1255 18.269 14.8104 18.1366 15.4582 17.8917C16.0161 17.6882 16.5205 17.3605 16.9332 16.9334C17.36 16.5188 17.6901 16.0152 17.8998 15.4584C18.1375 14.8089 18.267 14.1248 18.2832 13.4334C18.2832 12.55 18.3332 12.2667 18.3332 10C18.3332 7.73335 18.3332 7.45002 18.2832 6.56669ZM16.7832 13.3334C16.7771 13.8623 16.6813 14.3864 16.4998 14.8834C16.3668 15.246 16.1531 15.5737 15.8748 15.8417C15.6045 16.1171 15.2775 16.3304 14.9165 16.4667C14.4196 16.6481 13.8955 16.744 13.3665 16.75C12.5332 16.7917 12.2248 16.8 10.0332 16.8C7.8415 16.8 7.53317 16.8 6.69984 16.75C6.15058 16.7603 5.60367 16.6757 5.08317 16.5C4.73799 16.3568 4.42597 16.144 4.1665 15.875C3.88991 15.6073 3.67887 15.2793 3.54984 14.9167C3.34638 14.4126 3.23354 13.8766 3.2165 13.3334C3.2165 12.5 3.1665 12.1917 3.1665 10C3.1665 7.80835 3.1665 7.50002 3.2165 6.66669C3.22024 6.1259 3.31896 5.58997 3.50817 5.08335C3.65488 4.73161 3.88006 4.41807 4.1665 4.16669C4.41968 3.88016 4.73258 3.6526 5.08317 3.50002C5.59113 3.31672 6.1265 3.22092 6.6665 3.21669C7.49984 3.21669 7.80817 3.16669 9.99984 3.16669C12.1915 3.16669 12.4998 3.16669 13.3332 3.21669C13.8621 3.22275 14.3863 3.31856 14.8832 3.50002C15.2619 3.64056 15.6017 3.86906 15.8748 4.16669C16.1479 4.42267 16.3613 4.73563 16.4998 5.08335C16.685 5.5908 16.7809 6.1265 16.7832 6.66669C16.8248 7.50002 16.8332 7.80835 16.8332 10C16.8332 12.1917 16.8248 12.5 16.7832 13.3334ZM9.99984 5.72502C9.15468 5.72667 8.32897 5.97879 7.62705 6.44954C6.92513 6.92028 6.37849 7.58852 6.0562 8.36982C5.73391 9.15111 5.65044 10.0104 5.81633 10.8391C5.98222 11.6678 6.39003 12.4288 6.98823 13.0258C7.58643 13.6229 8.34818 14.0292 9.17722 14.1935C10.0063 14.3578 10.8654 14.2726 11.6461 13.9488C12.4267 13.625 13.0939 13.0771 13.5633 12.3742C14.0327 11.6714 14.2832 10.8452 14.2832 10C14.2843 9.43761 14.1742 8.88053 13.9592 8.36082C13.7442 7.84111 13.4286 7.36903 13.0306 6.97173C12.6325 6.57443 12.1598 6.25975 11.6397 6.04579C11.1195 5.83184 10.5622 5.72282 9.99984 5.72502ZM9.99984 12.775C9.45099 12.775 8.91448 12.6123 8.45813 12.3073C8.00178 12.0024 7.6461 11.569 7.43607 11.062C7.22604 10.5549 7.17108 9.99694 7.27816 9.45865C7.38523 8.92035 7.64953 8.42589 8.03762 8.0378C8.42571 7.64971 8.92016 7.38542 9.45846 7.27834C9.99676 7.17127 10.5547 7.22622 11.0618 7.43625C11.5688 7.64629 12.0022 8.00197 12.3072 8.45831C12.6121 8.91466 12.7748 9.45118 12.7748 10C12.7748 10.3644 12.7031 10.7253 12.5636 11.062C12.4241 11.3986 12.2197 11.7046 11.9621 11.9622C11.7044 12.2199 11.3985 12.4243 11.0618 12.5638C10.7251 12.7032 10.3643 12.775 9.99984 12.775Z" fill="#EB3348"/>
</svg>
