<svg width="20" height="20" viewBox="0 0 20 20" fill="none" xmlns="http://www.w3.org/2000/svg">
<path d="M17.0585 1.66668H2.9418C2.78311 1.66448 2.62555 1.69355 2.4781 1.75225C2.33066 1.81095 2.19622 1.89812 2.08246 2.00877C1.96871 2.11943 1.87786 2.25142 1.81512 2.39719C1.75238 2.54296 1.71897 2.69966 1.7168 2.85835V17.1417C1.71897 17.3004 1.75238 17.4571 1.81512 17.6028C1.87786 17.7486 1.96871 17.8806 2.08246 17.9913C2.19622 18.1019 2.33066 18.1891 2.4781 18.2478C2.62555 18.3065 2.78311 18.3356 2.9418 18.3333H17.0585C17.2171 18.3356 17.3747 18.3065 17.5222 18.2478C17.6696 18.1891 17.804 18.1019 17.9178 17.9913C18.0316 17.8806 18.1224 17.7486 18.1851 17.6028C18.2479 17.4571 18.2813 17.3004 18.2835 17.1417V2.85835C18.2813 2.69966 18.2479 2.54296 18.1851 2.39719C18.1224 2.25142 18.0316 2.11943 17.9178 2.00877C17.804 1.89812 17.6696 1.81095 17.5222 1.75225C17.3747 1.69355 17.2171 1.66448 17.0585 1.66668ZM6.7418 15.6167H4.2418V8.11668H6.7418V15.6167ZM5.4918 7.06668C5.14702 7.06668 4.81636 6.92972 4.57256 6.68592C4.32876 6.44212 4.1918 6.11146 4.1918 5.76668C4.1918 5.4219 4.32876 5.09124 4.57256 4.84744C4.81636 4.60365 5.14702 4.46668 5.4918 4.46668C5.67488 4.44592 5.86028 4.46406 6.03586 4.51992C6.21144 4.57578 6.37325 4.66809 6.51068 4.79082C6.64811 4.91354 6.75807 5.06391 6.83336 5.23208C6.90864 5.40025 6.94756 5.58243 6.94756 5.76668C6.94756 5.95093 6.90864 6.13311 6.83336 6.30128C6.75807 6.46945 6.64811 6.61982 6.51068 6.74255C6.37325 6.86527 6.21144 6.95759 6.03586 7.01345C5.86028 7.0693 5.67488 7.08744 5.4918 7.06668ZM15.7585 15.6167H13.2585V11.5917C13.2585 10.5833 12.9001 9.92502 11.9918 9.92502C11.7107 9.92707 11.437 10.0152 11.2075 10.1777C10.978 10.3401 10.8039 10.5689 10.7085 10.8333C10.6433 11.0292 10.615 11.2355 10.6251 11.4417V15.6083H8.12513C8.12513 15.6083 8.12513 8.79168 8.12513 8.10835H10.6251V9.16668C10.8522 8.7726 11.1826 8.44795 11.5805 8.22768C11.9784 8.00742 12.4289 7.89989 12.8835 7.91668C14.5501 7.91668 15.7585 8.99168 15.7585 11.3V15.6167Z" fill="#2764AC"/>
</svg>
