<svg width="24" height="24" viewBox="0 0 24 24" fill="none" xmlns="http://www.w3.org/2000/svg">
<path d="M8 9V4.8C8 3.2536 9.2536 2 10.8 2H13.2C14.7464 2 16 3.2536 16 4.8V5.5" stroke="#B0BABF" stroke-width="1.5" stroke-linecap="round"/>
<path fill-rule="evenodd" clip-rule="evenodd" d="M12.4054 7.95834C12.136 7.92738 11.864 7.92738 11.5946 7.95834L6.39462 8.55604C4.60265 8.76202 3.25 10.279 3.25 12.0828V18.2622C3.25 19.9901 4.49407 21.467 6.19683 21.7606L11.3968 22.6571C11.796 22.7259 12.204 22.7259 12.6032 22.6571L17.8032 21.7606C19.5059 21.467 20.75 19.9901 20.75 18.2622V12.0828C20.75 10.2791 19.3974 8.76202 17.6054 8.55604L12.4054 7.95834ZM10.1389 14.2223C10.1389 13.1944 10.9722 12.3611 12 12.3611C13.0279 12.3611 13.8611 13.1944 13.8611 14.2223C13.8611 14.9833 13.4044 15.6376 12.75 15.9261V17.5557C12.75 17.9699 12.4142 18.3057 12 18.3057C11.5858 18.3057 11.25 17.9699 11.25 17.5557V15.9261C10.5957 15.6376 10.1389 14.9833 10.1389 14.2223Z" fill="#B0BABF"/>
</svg>
