<svg width="24" height="24" viewBox="0 0 24 24" fill="none" xmlns="http://www.w3.org/2000/svg">
<path fill-rule="evenodd" clip-rule="evenodd" d="M20.6637 3.63414C20.9501 3.33494 20.9398 2.86018 20.6406 2.57373C20.3414 2.28728 19.8666 2.29762 19.5802 2.59682L2.45832 20.4809C2.17187 20.7801 2.18221 21.2549 2.48141 21.5413C2.78061 21.8278 3.25537 21.8175 3.54182 21.5183L7.26872 17.6254L7.34923 17.6747C7.37169 17.6884 7.39485 17.7009 7.41863 17.7122C8.80736 18.3719 10.3279 18.75 12 18.75C16.2885 18.75 19.5092 16.2745 22.1068 13.0754C22.6158 12.4485 22.6158 11.5516 22.1068 10.9247C20.784 9.29553 19.3029 7.85643 17.5997 6.83451L20.6637 3.63414ZM3.05776 11.8701C5.53153 8.82346 8.36854 6.75001 12 6.75001C12.4142 6.75001 12.75 6.41422 12.75 6.00001C12.75 5.58579 12.4142 5.25001 12 5.25001C7.71156 5.25001 4.4908 7.72554 1.89328 10.9246C1.3843 11.5515 1.38413 12.4483 1.89322 13.0753C2.62454 13.976 3.40263 14.8165 4.23803 15.5602C4.54742 15.8356 5.02149 15.8081 5.2969 15.4987C5.57231 15.1893 5.54477 14.7152 5.23538 14.4398C4.47267 13.7609 3.74972 12.9821 3.05771 12.1298C2.99608 12.0539 2.99603 11.9462 3.05776 11.8701ZM11.5303 13.4697L11 12.9393L9.93934 14L10.4697 14.5303C10.7714 14.8321 11.1297 15.0715 11.524 15.2349C11.9183 15.3982 12.3409 15.4823 12.7677 15.4823C13.1945 15.4823 13.6172 15.3982 14.0115 15.2349C14.4058 15.0716 14.7641 14.8322 15.0659 14.5304C15.3677 14.2286 15.607 13.8704 15.7704 13.476C15.9337 13.0817 16.0178 12.6591 16.0178 12.2323C16.0178 11.8055 15.9338 11.3829 15.7704 10.9886C15.6071 10.5943 15.3677 10.236 15.0659 9.93422L14.5356 9.40388L13.4749 10.4645L14.0053 10.9949C14.1678 11.1574 14.2967 11.3503 14.3846 11.5626C14.4725 11.7749 14.5178 12.0025 14.5178 12.2323C14.5178 12.4621 14.4725 12.6897 14.3846 12.902C14.2966 13.1143 14.1677 13.3072 14.0052 13.4697C13.8427 13.6322 13.6498 13.7611 13.4375 13.8491C13.2251 13.937 12.9976 13.9823 12.7678 13.9823C12.538 13.9823 12.3104 13.937 12.0981 13.849C11.8858 13.7611 11.6928 13.6322 11.5303 13.4697Z" fill="#B0BABF"/>
</svg>
